PathFileType	4	(X/Y/Z)	D:\Share\Shared_Data\Ergonomics\Sit To Stand Pertubation\S3\Perturbed.trc
DataRate	CameraRate	NumFrames	NumMarkers	Units	OrigDataRate	OrigDataStartFrame	OrigNumFrames	
100	100	9	18	m	100	11655	211
Frame#	Time	R_ASIS			R_Pelvis			V_Sacral			L_Pelvis			L_ASIS			Clavical			R_Acromium			L_Acromium			Sternum			Torso			R_Thigh_Med			R_Thigh_Lat			R_Thigh			R_Shank_Med			R_Shank_Lat			R_Shank			R_Heel			R_Toe			
		X1	Y1	Z1	X2	Y2	Z2	X3	Y3	Z3	X4	Y4	Z4	X5	Y5	Z5	X6	Y6	Z6	X7	Y7	Z7	X8	Y8	Z8	X9	Y9	Z9	X10	Y10	Z10	X11	Y11	Z11	X12	Y12	Z12	X13	Y13	Z13	X14	Y14	Z14	X15	Y15	Z15	X16	Y16	Z16	X17	Y17	Z17	X18	Y18	Z18	

11655	116.54	0.38452393	0.95025696	0.1553416	0.27154031	0.94498511	0.20102963	0.17162573	0.95728082	0.0058052979	0.2971893	0.95647595	-0.1862184	0.39968295	0.94417346	-0.12747547	0.3280332	1.3751691	0.017278465	0.26448019	1.4198787	0.18756976	0.28442578	1.424907	-0.14813544	0.36284323	1.3016226	0.022333332	0.33813928	1.3604296	-0.047288277	0.35024988	0.46346802	0.045299278	0.33278265	0.45538504	0.15304663	0.41733926	0.66287561	0.11335476	0.3893187	0.0021918485	0.13745618	0.27911447	0.0946819	0.17287003	0.27589417	0.28303723	0.17679652	0.22020316	0.04734248	0.12854242	0.43827643	0.056767151	0.1133693
11656	116.55	0.38451855	0.95027893	0.15534628	0.27153067	0.94498773	0.20103633	0.17155351	0.95733148	0.0059230862	0.29690979	0.95650018	-0.18618822	0.3994451	0.94417059	-0.12752147	0.32823096	1.3751688	0.01731398	0.2647644	1.4200443	0.18749179	0.28491953	1.4251897	-0.14804141	0.3629455	1.3016689	0.022417278	0.33826251	1.3602616	-0.047280811	0.3503688	0.46352158	0.045264175	0.33295468	0.45541058	0.15302422	0.41740222	0.66295148	0.11330442	0.3837486	0.0082102032	0.13469571	0.27911951	0.094699326	0.17283154	0.2760347	0.28305582	0.17687741	0.22021333	0.047385632	0.12857281	0.43829407	0.056730415	0.1133772
11657	116.56	0.38448004	0.95029755	0.15537312	0.27144641	0.94494238	0.20100752	0.17140147	0.95740857	0.0060540185	0.29655392	0.95649359	-0.1861004	0.39921146	0.94417865	-0.12755619	0.32847021	1.3751594	0.017349503	0.26513132	1.4201919	0.18741063	0.28550925	1.425493	-0.14794736	0.36307147	1.3017059	0.022476555	0.33842896	1.3599763	-0.047290386	0.35051917	0.46355585	0.045244259	0.33310138	0.45543158	0.15300487	0.41743478	0.66303687	0.11328339	0.37796964	0.014464142	0.13182956	0.27912854	0.094717407	0.17278656	0.27616046	0.28307315	0.17694336	0.22022638	0.047421665	0.12859322	0.43831577	0.056686985	0.11338504
11658	116.57	0.38441324	0.95030627	0.15541344	0.27130695	0.94486127	0.20096426	0.17117694	0.95750653	0.0062009783	0.29612888	0.95645612	-0.18596947	0.39896964	0.94418811	-0.12758904	0.32874265	1.375137	0.017380436	0.26556366	1.4203127	0.18733008	0.28617786	1.4257948	-0.1478576	0.36322144	1.3017224	0.022510031	0.33864767	1.359556	-0.047318409	0.35067664	0.46357251	0.045240326	0.33320517	0.45544736	0.15298808	0.41742697	0.66312219	0.11329524	0.37369974	0.019115572	0.12970558	0.27914282	0.094734535	0.1727401	0.27625601	0.28308728	0.17698843	0.22024162	0.047452305	0.12860387	0.43834192	0.056636951	0.11339108
11659	116.58	0.38432053	0.95030078	0.15545837	0.27113135	0.94476099	0.20092569	0.17089304	0.95761682	0.0063636446	0.29564624	0.95639093	-0.18581419	0.39870688	0.94418945	-0.12763007	0.32903836	1.3751013	0.017402502	0.266043	1.4204028	0.18725299	0.28690555	1.4260758	-0.14777382	0.36339392	1.3017095	0.022519547	0.33892657	1.3590223	-0.047363518	0.3508222	0.46357526	0.04525071	0.33325461	0.45545837	0.1529735	0.41737579	0.66319891	0.11334182	0.37254996	0.020439939	0.12911755	0.27916272	0.094750282	0.17269632	0.27631204	0.28309686	0.17701012	0.22025893	0.047479683	0.12860564	0.43837277	0.056580769	0.11339435
11660	116.59	0.38420175	0.95027856	0.15549983	0.27093497	0.94465869	0.20090579	0.17056602	0.95772913	0.006538805	0.29512076	0.95630499	-0.18565468	0.39841672	0.9441767	-0.12768742	0.32934808	1.375054	0.017412565	0.26655121	1.420463	0.18718051	0.28767371	1.4263223	-0.14769626	0.36358643	1.3016619	0.022508886	0.33926843	1.358442	-0.047423569	0.35094211	0.46356824	0.045271999	0.33324548	0.45546494	0.15296446	0.41728296	0.66326117	0.11342126	0.37486261	0.018067902	0.13023068	0.27918787	0.09476535	0.17265758	0.27632602	0.28310114	0.17700949	0.22027826	0.047505444	0.12860005	0.43840839	0.056519356	0.1133946
11661	116.6	0.3840553	0.95023975	0.15553085	0.27072757	0.94456964	0.20091185	0.17021359	0.95783276	0.0067201214	0.29456845	0.95620758	-0.18551039	0.39809796	0.94414734	-0.12776539	0.32966605	1.3749972	0.017409424	0.26707144	1.4204972	0.1871115	0.28846686	1.4265262	-0.14762566	0.36379559	1.3015759	0.022482672	0.33966763	1.3578995	-0.047498013	0.35102634	0.46355554	0.045299381	0.33318063	0.45546655	0.15296994	0.41715018	0.66330707	0.11352665	0.37943137	0.013285481	0.13244443	0.27921814	0.094780998	0.17262654	0.2763009	0.28309995	0.17699028	0.2202995	0.047530422	0.12858902	0.43844824	0.056454098	0.113392
11662	116.61	0.38387836	0.95018567	0.15554616	0.27051279	0.94450421	0.2009447	0.16985373	0.95791876	0.0068979788	0.29400543	0.95610889	-0.18539819	0.39775275	0.94410144	-0.12786342	0.32999066	1.3749316	0.017393581	0.26759048	1.4205135	0.18704256	0.28927264	1.4266855	-0.14756384	0.36401846	1.3014508	0.02244545	0.34011292	1.357452	-0.047586346	0.35106778	0.46354062	0.045326927	0.33306891	0.45546191	0.1530022	0.41697705	0.66333759	0.11364619	0.38459628	0.0078643894	0.13493762	0.27925378	0.094797913	0.1726075	0.27624362	0.28309338	0.17695763	0.22032216	0.047554806	0.12857457	0.43849118	0.05638678	0.11338667
11663	116.62	0.38366766	0.95011908	0.15554234	0.27028906	0.94446722	0.20099979	0.16950278	0.95798193	0.0070606966	0.29344632	0.9560188	-0.18533	0.39738507	0.94404077	-0.12797643	0.33032413	1.374858	0.017366524	0.26809924	1.4205226	0.18696928	0.29008115	1.4268014	-0.1475134	0.36425284	1.3012877	0.022401043	0.34059232	1.3571111	-0.047685543	0.35106149	0.46352618	0.045348106	0.3329223	0.45545007	0.15306715	0.41676245	0.66335571	0.11376444	0.38923138	0.0030061443	0.13715848	0.27929562	0.094815315	0.1726059	0.27616321	0.28308173	0.17691679	0.2203456	0.047578415	0.12855865	0.43853549	0.056319431	0.11337872
